<svg width="512" height="512" viewBox="0 0 512 512" fill="none" xmlns="http://www.w3.org/2000/svg" role="img" aria-label="avatar">
  <defs>
    <linearGradient id="bg" x1="0" y1="0" x2="1" y2="1">
      <stop offset="0%" stop-color="#F7D6B9"/>
      <stop offset="100%" stop-color="#E99C6A"/>
    </linearGradient>
    <linearGradient id="ink" x1="0" y1="0" x2="1" y2="1">
      <stop offset="0%" stop-color="#1F2937"/>
      <stop offset="100%" stop-color="#111827"/>
    </linearGradient>
  </defs>
  <rect width="512" height="512" rx="112" fill="url(#bg)"/>
  <circle cx="256" cy="198" r="86" fill="#FFF7ED" opacity="0.88"/>
  <path d="M142 390C160 322 203 292 256 292C309 292 352 322 370 390" stroke="url(#ink)" stroke-width="28" stroke-linecap="round"/>
  <path d="M198 194C198 162 222 138 256 138C290 138 314 162 314 194" stroke="url(#ink)" stroke-width="24" stroke-linecap="round"/>
  <circle cx="224" cy="202" r="8" fill="#111827"/>
  <circle cx="288" cy="202" r="8" fill="#111827"/>
  <path d="M224 236C234 246 246 252 256 252C266 252 278 246 288 236" stroke="#111827" stroke-width="10" stroke-linecap="round"/>
</svg>
